<?xml version="1.0" encoding="utf-8"?>
<!-- Generator: Adobe Illustrator 22.1.0, SVG Export Plug-In . SVG Version: 6.00 Build 0)  -->
<svg version="1.1" id="Layer_1" xmlns="http://www.w3.org/2000/svg" xmlns:xlink="http://www.w3.org/1999/xlink" x="0px" y="0px"
	 viewBox="0 0 207.9 205.5" style="enable-background:new 0 0 207.9 205.5;" xml:space="preserve">
<style type="text/css">
	.st0{fill:#2E2A25;}
	.st1{fill:#FFFFFF;}
	.st2{fill:#EE3524;}
	.st3{opacity:0.7;fill:#2E2A25;}
</style>
<g>
	<g>
		<g>
			<g>
				<g>
					<path class="st0" d="M103.9,8C51.6,8,9,50.6,9,102.9s42.6,94.9,94.9,94.9s94.9-42.6,94.9-94.9S156.2,8,103.9,8z"/>
					<path class="st1" d="M150.9,154.2c-12.7,11.6-29.6,18.6-48.2,18.3c-38-0.7-68.7-32.3-68.4-70.3c0.3-28,17.2-52.1,41.4-62.9
						c7.3-3.3,15.6,2,15.6,10V104c0,4.4,2.6,8.3,6.6,10.1l50,22C155,139.3,156.7,148.9,150.9,154.2z"/>
				</g>
				<path class="st2" d="M116.6,87.5V49.4c0-7.9,8.2-13.3,15.4-10.1c24.4,10.8,41.5,35.3,41.5,63.7c0,0.1,0,0.1,0,0.2
					c0,7.9-8.3,13.1-15.5,9.9l-34.9-15.4C119.1,95.8,116.6,91.9,116.6,87.5z"/>
			</g>
		</g>
	</g>
</g>
</svg>
