<?xml version="1.0" encoding="utf-8"?>
<!-- Generator: Adobe Illustrator 22.1.0, SVG Export Plug-In . SVG Version: 6.00 Build 0)  -->
<svg version="1.1" xmlns="http://www.w3.org/2000/svg" xmlns:xlink="http://www.w3.org/1999/xlink" x="0px" y="0px"
	 viewBox="0 0 152.6 127.2" style="enable-background:new 0 0 152.6 127.2;" xml:space="preserve">
<style type="text/css">
	.st0{fill:#B3DCFF;}
	.st1{fill:#5ECC62;}
	.st2{fill:#00AD45;}
</style>
<g>
	<g>
		<path class="st0" d="M76.3,0C35.2,0,3,52.3,0,96.4c12.9,22.4,44,30.8,76.3,30.8c32.3,0,63.4-8.4,76.3-30.8
			C149.6,52.3,117.4,0,76.3,0z"/>
		<path class="st1" d="M123.9,54.9c-9-11.6-20.5-23.9-27.2-23.9c-6.7,0-25.3,33-33.8,33c-8.5,0-13-15-23.5-15
			C25,49.1,11,91.2,11,91.2s5.8,25.7,66.5,25.7c60.7,0,65.6-25.3,65.6-25.3S136.8,71.6,123.9,54.9z"/>
		<path d="M43.8,87.6c0-4.2,3.4-7.7,7.7-7.7s7.7,3.4,7.7,7.7c0,4.2-3.4,7.7-7.7,7.7S43.8,91.8,43.8,87.6 M93.5,87.6
			c0,4.2,3.4,7.7,7.7,7.7c4.2,0,7.7-3.4,7.7-7.7c0-4.2-3.4-7.7-7.7-7.7C96.9,79.9,93.5,83.3,93.5,87.6 M92.1,98.7
			c0.6-1.2,0.1-2.6-1-3.2c-1.1-0.6-2.6-0.2-3.2,1c-0.1,0.2-3.2,5.8-11.4,5.8c-8,0-11.7-5.7-11.8-5.9c-0.7-1.1-2.1-1.5-3.2-0.8
			c-1.1,0.7-1.5,2.1-0.8,3.3c0.2,0.3,5.1,8.2,15.9,8.2C87.6,107.1,91.9,99.1,92.1,98.7z"/>
	</g>
	<g>
		<path class="st2" d="M63.8,78c-9.4,0-14.3-9.3-16.9-15c-2.4-5.2-2.8-13.3-9.5-13.6c0.7-0.3,1.3-0.4,1.9-0.4c10.5,0,15,15,23.5,15
			c8.5,0,27.2-33,33.8-33c1.3,0,2.7,0.4,4.2,1.2c-1.1-0.2-2.6,0-3.7,1.1C95,35.4,75.5,78,63.8,78z"/>
	</g>
</g>
</svg>
